<?xml version="1.0" encoding="UTF-8"?>
<svg width="384px" height="269px" viewBox="0 0 384 269" version="1.1" xmlns="http://www.w3.org/2000/svg" xmlns:xlink="http://www.w3.org/1999/xlink">
    <!-- Generator: Sketch 52.5 (67469) - http://www.bohemiancoding.com/sketch -->
    <title>Logo, Earth Archive</title>
    <desc>Created with Sketch.</desc>
    <defs>
        <rect id="path-1" x="0" y="0" width="384" height="269"></rect>
    </defs>
    <g id="Logo,-Earth-Archive" stroke="none" stroke-width="1" fill="none" fill-rule="evenodd">
        <mask id="mask-2" fill="white">
            <use xlink:href="#path-1"></use>
        </mask>
        <g id="Background"></g>
        <path d="M33.5,58.0216375 L33.5,229.5 L300.5,229.5 L300.5,17.5 C274.043094,17.5 273.288096,17.5 231.851546,17.5 C227.018434,17.5 223.850135,20.6307442 219.496439,28.6170263 C219.134611,29.2807521 216.022328,35.1894123 215.011736,36.9937987 C211.415643,43.4145316 208.032851,47.8857931 203.622855,51.3674459 C198.102744,55.7255239 191.373539,58.0216375 182.978159,58.0216375 C139.46836,58.0216375 139.264588,58.0216375 33.5000183,58.0216375 Z" id="Rectangle" stroke="#9B9B9B" stroke-width="3" fill="#FFFFFF" mask="url(#mask-2)"></path>
        <circle id="Oval" stroke="#979797" stroke-width="2" fill="#FFFFFF" mask="url(#mask-2)" cx="152" cy="114" r="105"></circle>
        <path d="M199.277486,54.590787 C186.760099,67.048173 179.067346,74.5154091 159.92435,69.1269838 C153.377876,67.2842634 157.349755,57.6654057 149.855021,60.4378838 C131.078578,67.383731 139.417893,93.4079479 152.829913,101.382662 C178.567391,116.686028 168.290924,92.9113838 174.620617,125.483816" id="Path" stroke="#979797" mask="url(#mask-2)"></path>
        <path d="M198.896754,54.1582213 C199.828925,55.0095728 201.253195,50.9565136 200.966137,50.8511082 C198.50206,49.946318 192.961006,52.3074761 190.790551,50.8511082 C171.670617,38.0216968 205.82711,49.9372708 208.15063,43.0348444 C213.356063,27.571187 202.950949,30.4894276 212.732265,29" id="Path-2" stroke="#979797" mask="url(#mask-2)"></path>
        <path d="M244.245164,64.7114592 C216.276686,71.9678366 226.764274,108.191596 244.145498,118.395419 C246.047863,119.512222 252.620987,120.650172 250.635896,119.688062 C249.846594,119.305513 214.85205,102.245734 211.457931,113.569148 C210.429762,116.999312 211.457931,120.731036 211.457931,124.31198" id="Path-3" stroke="#979797" mask="url(#mask-2)"></path>
        <path d="M57.5704697,68.7385731 C72.049383,72.2313006 105.355911,84.171018 120.069862,76.5596827 C124.731009,74.1485322 120.767288,65.8806962 119.329914,60.8335293 C116.332987,50.3101723 113.331997,39.3153115 106.935036,30.4382905 C103.377955,25.5021541 111.362156,42.3700649 110.347855,48.3691861 C109.946027,50.7458161 105.888734,50.3417453 103.507115,50.7128571 C100.806429,51.1336868 97.9634141,51.3576694 95.3072862,50.7128571 C93.8824466,50.3669573 92.5792147,49.2130709 91.9246682,47.9010559 C88.384145,40.8042035 103.284734,36.0214961 107.043763,35.596783 C137.264272,32.1823241 146.930077,43.8508012 135.077209,11.5107308" id="Path" stroke="#979797" mask="url(#mask-2)"></path>
        <path d="M48.0617504,107.145194 C59.6256812,108.104594 76.2551645,108.443134 81.6161056,121.678941 C88.7744187,139.352341 86.4387192,154.678616 63.8525985,154.073703 C63.282507,154.058434 63.4473082,152.006426 63.8525985,152.399135 L73.396693,150.758933 C77.6092648,154.84073 77.2356109,161.737349 79.1550698,167.226557" id="Path-5" stroke="#979797" mask="url(#mask-2)"></path>
        <path d="M110.51517,125.5 C110.032537,125.5 109.579387,125.732229 109.297533,126.12401 L36.6362987,227.12401 C36.4527079,227.379203 36.3539361,227.685629 36.3539361,228 C36.3539361,228.828427 37.0255089,229.5 37.8539361,229.5 L300.650802,229.5 C301.150906,229.5 301.618117,229.250762 301.89664,228.835396 L369.622163,127.835396 C369.787855,127.588298 369.876325,127.297509 369.876325,127 C369.876325,126.171573 369.204752,125.5 368.376325,125.5 L110.51517,125.5 Z" id="Rectangle" stroke="#9B9B9B" stroke-width="3" fill="#FFFFFF" mask="url(#mask-2)"></path>
    </g>
</svg>